<?xml version="1.0" encoding="utf-8"?>
<!-- Generator: Adobe Illustrator 17.0.0, SVG Export Plug-In . SVG Version: 6.00 Build 0)  -->
<!DOCTYPE svg PUBLIC "-//W3C//DTD SVG 1.1//EN" "http://www.w3.org/Graphics/SVG/1.1/DTD/svg11.dtd">
<svg version="1.1" id="Layer_1" xmlns="http://www.w3.org/2000/svg" xmlns:xlink="http://www.w3.org/1999/xlink" x="0px" y="0px"
	 width="241px" height="62.333px" viewBox="0 0 241 62.333" enable-background="new 0 0 241 62.333" xml:space="preserve">
<g>
	<path d="M40.253,40.697l5.684,1.436c-1.191,4.668-3.335,8.228-6.431,10.679c-3.096,2.451-6.88,3.677-11.353,3.677
		c-4.629,0-8.394-0.942-11.294-2.827c-2.9-1.885-5.108-4.614-6.621-8.188c-1.514-3.574-2.271-7.412-2.271-11.514
		c0-4.472,0.854-8.374,2.563-11.704c1.709-3.33,4.141-5.859,7.295-7.588c3.154-1.729,6.625-2.593,10.415-2.593
		c4.296,0,7.91,1.094,10.84,3.281c2.93,2.188,4.97,5.264,6.123,9.229l-5.596,1.318c-0.996-3.125-2.442-5.4-4.336-6.826
		c-1.895-1.425-4.277-2.139-7.148-2.139c-3.301,0-6.06,0.791-8.276,2.373c-2.217,1.582-3.775,3.706-4.673,6.372
		c-0.898,2.666-1.348,5.416-1.348,8.247c0,3.652,0.532,6.841,1.597,9.565c1.064,2.725,2.72,4.761,4.966,6.108
		c2.246,1.348,4.677,2.021,7.295,2.021c3.183,0,5.878-0.918,8.086-2.754C37.978,47.035,39.472,44.31,40.253,40.697z"/>
	<path d="M52.147,55.755V12.806h5.273v42.949H52.147z"/>
	<path d="M65.624,18.87v-6.064h5.273v6.064H65.624z M65.624,55.755V24.642h5.273v31.113H65.624z"/>
	<path d="M78.925,55.755V24.642h4.746v4.424c2.285-3.417,5.585-5.127,9.902-5.127c1.875,0,3.599,0.337,5.171,1.011
		c1.572,0.674,2.749,1.558,3.53,2.651c0.781,1.094,1.328,2.393,1.641,3.896c0.195,0.977,0.293,2.686,0.293,5.127v19.131h-5.273
		V36.829c0-2.148-0.205-3.754-0.615-4.819c-0.41-1.064-1.138-1.914-2.183-2.549c-1.045-0.634-2.271-0.952-3.677-0.952
		c-2.246,0-4.185,0.713-5.815,2.139c-1.631,1.426-2.446,4.131-2.446,8.115v16.992H78.925z"/>
	<path d="M123.896,55.755V17.874h-14.15v-5.068h34.043v5.068h-14.209v37.881H123.896z"/>
	<path d="M198.544,55.755V12.806h14.795c3.34,0,5.889,0.205,7.646,0.615c2.461,0.567,4.56,1.592,6.299,3.076
		c2.266,1.915,3.959,4.361,5.083,7.339c1.123,2.979,1.685,6.382,1.685,10.21c0,3.262-0.381,6.152-1.143,8.672
		s-1.739,4.604-2.93,6.255c-1.191,1.651-2.495,2.949-3.911,3.896c-1.417,0.948-3.125,1.666-5.127,2.153
		c-2.003,0.488-4.303,0.732-6.899,0.732H198.544z M204.228,50.687h9.17c2.831,0,5.054-0.264,6.665-0.791s2.896-1.27,3.853-2.227
		c1.348-1.348,2.397-3.159,3.149-5.435c0.751-2.275,1.128-5.034,1.128-8.276c0-4.492-0.737-7.944-2.212-10.356
		c-1.476-2.412-3.267-4.028-5.376-4.849c-1.523-0.586-3.975-0.879-7.354-0.879h-9.023V50.687z"/>
</g>
<polygon fill="#FF0000" points="166,25.359 162.162,19.346 166,13.333 169.838,19.346 "/>
<polygon fill="#F4ADAE" points="169.838,31.372 166,25.359 169.838,19.346 173.675,25.359 "/>
<polygon fill="#F4292B" points="162.162,31.372 158.325,25.359 162.162,19.346 166,25.359 "/>
<polygon fill="#F58283" points="166,37.385 162.162,31.372 166,25.359 169.838,31.372 "/>
<polygon fill="#F4ADAE" points="173.675,37.385 169.838,31.372 173.675,25.359 177.513,31.372 "/>
<polygon fill="#FF0000" points="158.325,37.385 154.487,31.372 158.325,25.359 162.162,31.372 "/>
<polygon fill="#F6969C" points="162.162,43.398 158.325,37.385 162.162,31.372 166,37.385 "/>
<polygon fill="#F64849" points="169.838,43.398 166,37.385 169.838,31.372 173.675,37.385 "/>
<polygon fill="#F64849" points="154.487,43.398 150.65,37.385 154.487,31.372 158.325,37.385 "/>
<polygon fill="#F64849" points="177.513,43.398 173.675,37.385 177.513,31.372 181.35,37.385 "/>
<polygon fill="#F6969C" points="158.325,49.411 154.487,43.398 158.325,37.385 162.162,43.398 "/>
<polygon fill="#F6969C" points="166,49.411 162.162,43.398 166,37.385 169.838,43.398 "/>
<polygon fill="#FF0000" points="150.65,49.411 146.812,43.398 150.65,37.385 154.487,43.398 "/>
<polygon fill="#F6969C" points="173.675,49.411 169.838,43.398 173.675,37.385 177.513,43.398 "/>
<polygon fill="#FF0000" points="181.35,49.411 177.513,43.398 181.35,37.385 185.188,43.398 "/>
<polygon fill="#FF0000" points="154.487,55.424 150.65,49.411 154.487,43.398 158.325,49.411 "/>
<polygon fill="#F6969C" points="162.162,55.424 158.325,49.411 162.162,43.398 166,49.411 "/>
<polygon fill="#F62F31" points="146.812,55.424 142.975,49.411 146.812,43.398 150.65,49.411 "/>
<polygon fill="#F6969C" points="169.838,55.424 166,49.411 169.838,43.398 173.675,49.411 "/>
<polygon fill="#F73436" points="177.513,55.424 173.675,49.411 177.513,43.398 181.35,49.411 "/>
<polygon fill="#F73436" points="185.188,55.424 181.35,49.411 185.188,43.398 189.025,49.411 "/>
<polygon fill="#FF0000" points="150.65,55.424 146.812,55.424 150.65,49.411 154.487,55.424 "/>
<polygon fill="#F62F31" points="158.325,55.424 154.487,55.424 158.325,49.411 162.162,55.424 "/>
<polygon fill="#FF0000" points="142.975,55.424 139.137,55.424 142.975,49.411 146.812,55.424 "/>
<polygon fill="#F28188" points="166,55.424 162.162,55.424 166,49.411 169.838,55.424 "/>
<polygon fill="#FF0000" points="173.675,55.424 169.838,55.424 173.675,49.411 177.513,55.424 "/>
<polygon fill="#FF0000" points="181.35,55.424 177.513,55.424 181.35,49.411 185.188,55.424 "/>
<polygon fill="#F73436" points="189.025,55.424 185.188,55.424 189.025,49.411 192.863,55.424 "/>
</svg>
