<?xml version="1.0" encoding="utf-8"?>
<!-- Generator: Adobe Illustrator 17.0.0, SVG Export Plug-In . SVG Version: 6.00 Build 0)  -->
<!DOCTYPE svg PUBLIC "-//W3C//DTD SVG 1.1//EN" "http://www.w3.org/Graphics/SVG/1.1/DTD/svg11.dtd">
<svg version="1.1" id="Layer_1" xmlns="http://www.w3.org/2000/svg" xmlns:xlink="http://www.w3.org/1999/xlink" x="0px" y="0px"
	 width="656px" height="215px" viewBox="0 0 656 215" enable-background="new 0 0 656 215" xml:space="preserve">
<g id="Body">
</g>
<polygon fill="#808080" points="369.417,191.573 393.165,145.425 334.776,191.573 "/>
<polygon fill="#808080" points="306.094,191.573 282.345,145.425 340.735,191.573 "/>
<polygon points="306.098,191.574 337.748,70.167 369.399,191.574 "/>
<polygon fill="#FF0000" points="239.141,147.089 337.748,70.167 317.054,191.574 "/>
<polygon fill="#FF0000" points="436.667,146.93 337.748,70.27 361.077,191.733 "/>
<polygon stroke="#000000" stroke-miterlimit="10" points="374.008,125.497 380.879,120.258 381.981,128.828 "/>
<polygon stroke="#000000" stroke-miterlimit="10" points="284.012,128.229 292.419,126.233 289.944,134.512 "/>
<polygon stroke="#000000" stroke-miterlimit="10" points="381.981,149.167 386.301,141.683 390.622,149.167 "/>
<polygon stroke="#000000" stroke-miterlimit="10" points="285.378,156.65 289.699,149.167 294.019,156.65 "/>
<polygon stroke="#000000" stroke-miterlimit="10" points="303.538,115.683 307.859,108.2 312.179,115.683 "/>
<polygon stroke="#000000" stroke-miterlimit="10" points="353.359,108.2 357.679,100.717 362,108.2 "/>
<polygon fill="#FFFFFF" stroke="#000000" stroke-miterlimit="10" points="310.953,8.254 310.428,17.092 303.037,12.218 "/>
<polygon stroke="#000000" stroke-miterlimit="10" points="312.708,16.362 326.025,56.781 308.083,18.192 "/>
<polygon fill="#FFFFFF" stroke="#000000" stroke-miterlimit="10" points="365.578,8.254 366.103,17.092 373.494,12.218 "/>
<polygon stroke="#000000" stroke-miterlimit="10" points="363.823,16.362 350.506,56.781 368.449,18.192 "/>
<polygon points="361.077,49.576 337.748,70.27 314.42,49.576 "/>
<polygon fill="#808080" points="321.519,83.037 314.42,49.576 337.748,70.27 "/>
<polygon fill="#808080" points="354.271,83.037 361.077,49.576 337.748,70.27 "/>
<polygon fill="#FFFFFF" points="323.727,58.142 325.719,54.692 327.711,58.142 "/>
<polygon fill="#FFFFFF" points="348.498,58.142 350.49,54.692 352.482,58.142 "/>
<g>
	<path d="M283.903,211.5v-12.169h5.171c1.3,0,2.246,0.109,2.834,0.328c0.59,0.218,1.062,0.607,1.416,1.166s0.531,1.198,0.531,1.917
		c0,0.914-0.269,1.668-0.805,2.263s-1.339,0.97-2.407,1.124c0.531,0.311,0.97,0.65,1.315,1.021c0.346,0.371,0.813,1.029,1.399,1.976
		l1.486,2.374h-2.938l-1.776-2.648c-0.631-0.945-1.063-1.542-1.295-1.788s-0.479-0.415-0.739-0.507
		c-0.26-0.091-0.672-0.137-1.237-0.137h-0.498v5.08H283.903z M286.36,204.478h1.818c1.179,0,1.915-0.05,2.208-0.149
		s0.523-0.271,0.689-0.515s0.249-0.548,0.249-0.913c0-0.41-0.109-0.74-0.328-0.992c-0.218-0.251-0.527-0.411-0.925-0.477
		c-0.199-0.028-0.797-0.042-1.793-0.042h-1.917v3.088H286.36z"/>
	<path d="M301.26,208.694l2.324,0.39c-0.299,0.853-0.771,1.502-1.415,1.947c-0.645,0.445-1.452,0.668-2.42,0.668
		c-1.533,0-2.667-0.501-3.403-1.502c-0.581-0.803-0.872-1.815-0.872-3.039c0-1.461,0.382-2.604,1.146-3.432s1.729-1.241,2.897-1.241
		c1.312,0,2.346,0.433,3.104,1.299s1.121,2.193,1.087,3.98h-5.844c0.017,0.691,0.205,1.229,0.564,1.614s0.808,0.577,1.345,0.577
		c0.365,0,0.672-0.1,0.921-0.299S301.133,209.137,301.26,208.694z M301.393,206.337c-0.017-0.675-0.191-1.188-0.523-1.54
		s-0.736-0.527-1.212-0.527c-0.509,0-0.93,0.186-1.262,0.557s-0.495,0.874-0.49,1.511h3.487V206.337z"/>
	<path d="M305.543,202.685h2.175v1.295c0.282-0.442,0.664-0.803,1.146-1.079s1.016-0.415,1.602-0.415
		c1.024,0,1.893,0.401,2.606,1.204c0.714,0.802,1.071,1.92,1.071,3.354c0,1.472-0.36,2.615-1.079,3.432s-1.591,1.225-2.615,1.225
		c-0.487,0-0.928-0.097-1.324-0.291c-0.396-0.193-0.812-0.525-1.249-0.996v4.441h-2.333L305.543,202.685L305.543,202.685z
		 M307.851,206.943c0,0.99,0.196,1.722,0.589,2.195c0.393,0.473,0.872,0.709,1.436,0.709c0.542,0,0.993-0.217,1.353-0.651
		s0.54-1.146,0.54-2.138c0-0.924-0.186-1.609-0.556-2.059c-0.371-0.447-0.83-0.672-1.378-0.672c-0.57,0-1.043,0.22-1.419,0.66
		C308.039,205.428,307.851,206.08,307.851,206.943z"/>
	<path d="M315.455,206.968c0-0.774,0.191-1.524,0.573-2.249c0.382-0.726,0.923-1.279,1.623-1.66c0.7-0.383,1.482-0.573,2.345-0.573
		c1.333,0,2.427,0.433,3.279,1.299s1.278,1.961,1.278,3.283c0,1.334-0.43,2.439-1.291,3.316c-0.86,0.877-1.943,1.315-3.25,1.315
		c-0.808,0-1.579-0.183-2.312-0.548s-1.291-0.9-1.672-1.606C315.646,208.84,315.455,207.98,315.455,206.968z M317.845,207.092
		c0,0.875,0.208,1.545,0.623,2.01s0.927,0.697,1.536,0.697s1.119-0.232,1.531-0.697c0.413-0.465,0.619-1.141,0.619-2.025
		c0-0.863-0.206-1.527-0.619-1.992c-0.412-0.465-0.922-0.697-1.531-0.697s-1.121,0.232-1.536,0.697S317.845,206.218,317.845,207.092
		z"/>
	<path d="M328.611,211.5h-2.333v-8.815h2.167v1.253c0.371-0.592,0.704-0.981,1-1.17c0.296-0.188,0.632-0.282,1.009-0.282
		c0.531,0,1.043,0.146,1.536,0.44l-0.722,2.033c-0.393-0.255-0.758-0.382-1.096-0.382c-0.327,0-0.603,0.09-0.83,0.27
		s-0.405,0.505-0.535,0.976s-0.195,1.455-0.195,2.955v2.722H328.611z"/>
	<path d="M337.037,202.685v1.859h-1.594v3.553c0,0.72,0.015,1.139,0.046,1.258c0.03,0.119,0.1,0.217,0.207,0.294
		c0.108,0.078,0.24,0.117,0.395,0.117c0.216,0,0.528-0.075,0.938-0.225l0.199,1.81c-0.542,0.232-1.157,0.349-1.843,0.349
		c-0.42,0-0.8-0.07-1.137-0.212c-0.337-0.141-0.585-0.323-0.743-0.548c-0.157-0.224-0.267-0.527-0.328-0.908
		c-0.05-0.271-0.075-0.819-0.075-1.645v-3.843h-1.071v-1.859h1.071v-1.751l2.341-1.361v3.113L337.037,202.685L337.037,202.685z"/>
	<path d="M345.122,205.374l-2.117-0.382c0.238-0.853,0.647-1.483,1.229-1.893s1.444-0.614,2.59-0.614
		c1.041,0,1.815,0.123,2.324,0.369s0.867,0.56,1.075,0.938c0.207,0.379,0.311,1.074,0.311,2.088l-0.025,2.723
		c0,0.774,0.037,1.346,0.112,1.714c0.074,0.368,0.214,0.762,0.419,1.183h-2.308c-0.061-0.155-0.136-0.385-0.224-0.689
		c-0.039-0.138-0.066-0.229-0.083-0.273c-0.398,0.388-0.825,0.678-1.278,0.871c-0.454,0.194-0.938,0.291-1.453,0.291
		c-0.908,0-1.623-0.246-2.146-0.738c-0.523-0.493-0.785-1.115-0.785-1.868c0-0.498,0.119-0.942,0.357-1.332
		c0.238-0.391,0.571-0.689,1-0.896c0.429-0.208,1.047-0.389,1.855-0.544c1.09-0.205,1.846-0.396,2.266-0.572v-0.232
		c0-0.449-0.111-0.769-0.332-0.959c-0.221-0.191-0.639-0.287-1.253-0.287c-0.415,0-0.739,0.082-0.971,0.245
		S345.266,204.965,345.122,205.374z M348.243,207.267c-0.299,0.1-0.772,0.219-1.419,0.356c-0.647,0.139-1.071,0.274-1.27,0.407
		c-0.304,0.216-0.457,0.489-0.457,0.821c0,0.327,0.122,0.609,0.365,0.848c0.244,0.237,0.553,0.356,0.93,0.356
		c0.42,0,0.822-0.139,1.204-0.415c0.282-0.21,0.468-0.468,0.556-0.771c0.061-0.199,0.091-0.579,0.091-1.138V207.267z"/>
	<path d="M357.457,211.5v-12.169h2.333v4.383c0.719-0.819,1.572-1.229,2.557-1.229c1.074,0,1.962,0.389,2.665,1.166
		s1.054,1.895,1.054,3.35c0,1.505-0.358,2.665-1.075,3.478c-0.716,0.814-1.586,1.221-2.61,1.221c-0.503,0-1-0.126-1.49-0.378
		c-0.489-0.252-0.912-0.624-1.266-1.116v1.295L357.457,211.5L357.457,211.5z M359.772,206.901c0,0.913,0.144,1.588,0.432,2.025
		c0.404,0.62,0.941,0.93,1.61,0.93c0.515,0,0.953-0.22,1.315-0.66c0.363-0.439,0.544-1.133,0.544-2.079
		c0-1.007-0.183-1.733-0.548-2.179s-0.833-0.669-1.403-0.669c-0.559,0-1.024,0.218-1.395,0.652S359.772,206.016,359.772,206.901z"/>
	<path d="M373.743,211.5v-1.32c-0.321,0.471-0.743,0.842-1.266,1.113c-0.523,0.271-1.075,0.406-1.656,0.406
		c-0.592,0-1.124-0.13-1.594-0.391c-0.47-0.26-0.811-0.625-1.021-1.096c-0.21-0.47-0.315-1.12-0.315-1.95v-5.578h2.333v4.051
		c0,1.239,0.043,1.999,0.129,2.278c0.085,0.279,0.242,0.501,0.469,0.664s0.515,0.245,0.863,0.245c0.398,0,0.755-0.109,1.071-0.328
		s0.531-0.489,0.647-0.813c0.116-0.323,0.174-1.116,0.174-2.378v-3.719h2.333v8.815h-2.167V211.5z"/>
	<path d="M378.109,212.081l2.665,0.323c0.044,0.311,0.146,0.523,0.307,0.64c0.221,0.166,0.57,0.249,1.046,0.249
		c0.609,0,1.065-0.092,1.37-0.273c0.205-0.122,0.36-0.318,0.465-0.59c0.072-0.193,0.108-0.551,0.108-1.07v-1.287
		c-0.697,0.952-1.577,1.428-2.64,1.428c-1.184,0-2.122-0.501-2.814-1.502c-0.542-0.792-0.813-1.777-0.813-2.955
		c0-1.479,0.355-2.607,1.066-3.387c0.711-0.781,1.595-1.171,2.652-1.171c1.09,0,1.989,0.479,2.698,1.437v-1.237h2.183v7.911
		c0,1.04-0.086,1.817-0.257,2.332s-0.412,0.919-0.722,1.212s-0.724,0.522-1.241,0.688s-1.171,0.25-1.963,0.25
		c-1.494,0-2.554-0.257-3.179-0.769s-0.938-1.16-0.938-1.946C378.101,212.286,378.104,212.191,378.109,212.081z M380.192,206.91
		c0,0.935,0.181,1.619,0.544,2.054c0.362,0.435,0.809,0.651,1.34,0.651c0.57,0,1.051-0.223,1.444-0.668s0.589-1.105,0.589-1.979
		c0-0.913-0.188-1.591-0.564-2.034c-0.376-0.442-0.852-0.664-1.428-0.664c-0.559,0-1.02,0.218-1.382,0.652
		C380.374,205.356,380.192,206.019,380.192,206.91z"/>
	<path d="M389.622,208.362l-0.606-6.176v-2.855h2.523v2.855l-0.598,6.176H389.622z M389.116,211.5v-2.332h2.333v2.332H389.116z"/>
</g>
<g>
	<polygon points="598.086,191.733 605.8,173.432 613.515,191.733 	"/>
	<polygon points="624.024,8.256 605.8,166.168 587.576,8.256 	"/>
</g>
<g>
	<path d="M568.07,207.025l2.382,0.756c-0.365,1.328-0.973,2.314-1.822,2.959s-1.927,0.967-3.233,0.967
		c-1.615,0-2.943-0.552-3.984-1.655c-1.04-1.104-1.561-2.614-1.561-4.528c0-2.025,0.523-3.599,1.569-4.719
		c1.046-1.121,2.421-1.681,4.126-1.681c1.488,0,2.697,0.44,3.627,1.32c0.554,0.52,0.969,1.267,1.245,2.241l-2.433,0.581
		c-0.144-0.631-0.443-1.129-0.9-1.494c-0.456-0.365-1.011-0.548-1.664-0.548c-0.902,0-1.634,0.324-2.195,0.971
		c-0.562,0.647-0.843,1.696-0.843,3.146c0,1.538,0.276,2.634,0.83,3.287s1.272,0.979,2.158,0.979c0.653,0,1.215-0.207,1.685-0.623
		C567.527,208.57,567.865,207.917,568.07,207.025z"/>
	<path d="M572.005,206.968c0-0.774,0.19-1.524,0.573-2.249c0.381-0.726,0.922-1.279,1.622-1.66c0.7-0.383,1.481-0.573,2.345-0.573
		c1.334,0,2.427,0.433,3.279,1.299s1.278,1.96,1.278,3.283c0,1.333-0.431,2.438-1.291,3.316c-0.86,0.877-1.943,1.315-3.249,1.315
		c-0.809,0-1.579-0.183-2.313-0.548s-1.291-0.9-1.672-1.606C572.195,208.84,572.005,207.98,572.005,206.968z M574.396,207.092
		c0,0.875,0.208,1.545,0.622,2.01c0.416,0.465,0.928,0.697,1.536,0.697s1.119-0.232,1.531-0.697s0.618-1.141,0.618-2.025
		c0-0.863-0.206-1.527-0.618-1.992s-0.923-0.697-1.531-0.697s-1.12,0.232-1.536,0.697
		C574.604,205.549,574.396,206.218,574.396,207.092z"/>
	<path d="M582.754,202.685h2.149v1.204c0.77-0.936,1.686-1.403,2.748-1.403c0.564,0,1.055,0.116,1.469,0.349
		c0.416,0.232,0.756,0.584,1.021,1.055c0.388-0.471,0.805-0.822,1.254-1.055c0.447-0.232,0.927-0.349,1.436-0.349
		c0.647,0,1.195,0.132,1.644,0.395s0.783,0.648,1.005,1.157c0.16,0.377,0.24,0.985,0.24,1.826v5.637h-2.332v-5.039
		c0-0.874-0.081-1.438-0.241-1.693c-0.216-0.332-0.548-0.498-0.996-0.498c-0.326,0-0.634,0.1-0.921,0.299
		c-0.288,0.199-0.496,0.492-0.623,0.876c-0.127,0.385-0.191,0.992-0.191,1.822v4.233h-2.332v-4.831c0-0.858-0.041-1.411-0.125-1.66
		c-0.082-0.249-0.211-0.435-0.386-0.556c-0.174-0.122-0.411-0.184-0.71-0.184c-0.359,0-0.683,0.098-0.971,0.291
		s-0.494,0.473-0.618,0.838c-0.125,0.365-0.187,0.972-0.187,1.818v4.283h-2.333V202.685z"/>
	<path d="M597.87,202.685h2.149v1.204c0.77-0.936,1.686-1.403,2.748-1.403c0.564,0,1.055,0.116,1.469,0.349
		c0.416,0.232,0.756,0.584,1.021,1.055c0.388-0.471,0.805-0.822,1.254-1.055c0.447-0.232,0.927-0.349,1.436-0.349
		c0.647,0,1.195,0.132,1.644,0.395s0.783,0.648,1.005,1.157c0.16,0.377,0.24,0.985,0.24,1.826v5.637h-2.332v-5.039
		c0-0.874-0.081-1.438-0.241-1.693c-0.216-0.332-0.548-0.498-0.996-0.498c-0.326,0-0.634,0.1-0.921,0.299
		c-0.288,0.199-0.496,0.492-0.623,0.876c-0.127,0.385-0.191,0.992-0.191,1.822v4.233H603.2v-4.831c0-0.858-0.041-1.411-0.125-1.66
		c-0.082-0.249-0.211-0.435-0.386-0.556c-0.174-0.122-0.411-0.184-0.71-0.184c-0.359,0-0.683,0.098-0.971,0.291
		s-0.494,0.473-0.618,0.838c-0.125,0.365-0.187,0.972-0.187,1.818v4.283h-2.333V202.685z"/>
	<path d="M618.265,208.694l2.324,0.39c-0.299,0.853-0.771,1.502-1.415,1.947s-1.451,0.668-2.42,0.668
		c-1.533,0-2.667-0.501-3.403-1.502c-0.581-0.803-0.872-1.815-0.872-3.039c0-1.461,0.383-2.604,1.146-3.432
		c0.764-0.828,1.729-1.241,2.896-1.241c1.312,0,2.347,0.433,3.104,1.299s1.12,2.192,1.087,3.98h-5.844
		c0.018,0.692,0.205,1.229,0.564,1.614c0.36,0.385,0.809,0.577,1.346,0.577c0.365,0,0.672-0.1,0.921-0.299
		S618.138,209.137,618.265,208.694z M618.397,206.337c-0.017-0.675-0.19-1.188-0.522-1.54s-0.736-0.527-1.213-0.527
		c-0.509,0-0.93,0.186-1.262,0.557s-0.495,0.875-0.489,1.511h3.486V206.337z"/>
	<path d="M630.633,211.5h-2.332v-4.499c0-0.952-0.05-1.567-0.149-1.847s-0.262-0.497-0.485-0.652
		c-0.225-0.154-0.494-0.232-0.81-0.232c-0.404,0-0.767,0.111-1.087,0.332c-0.321,0.222-0.541,0.516-0.66,0.881
		s-0.179,1.04-0.179,2.025v3.992h-2.333v-8.815h2.167v1.295c0.77-0.996,1.737-1.494,2.905-1.494c0.515,0,0.985,0.093,1.411,0.278
		s0.748,0.422,0.967,0.709c0.219,0.288,0.371,0.615,0.457,0.98s0.128,0.888,0.128,1.568L630.633,211.5L630.633,211.5z"/>
	<path d="M637.041,202.685v1.859h-1.594v3.553c0,0.72,0.016,1.139,0.046,1.258c0.03,0.118,0.1,0.217,0.207,0.294
		c0.108,0.078,0.239,0.117,0.395,0.117c0.216,0,0.528-0.075,0.938-0.225l0.199,1.81c-0.542,0.232-1.156,0.349-1.842,0.349
		c-0.421,0-0.8-0.07-1.138-0.212c-0.338-0.141-0.585-0.323-0.743-0.548c-0.157-0.224-0.267-0.527-0.328-0.908
		c-0.049-0.271-0.074-0.819-0.074-1.645v-3.843h-1.07v-1.859h1.07v-1.751l2.341-1.361v3.113L637.041,202.685L637.041,202.685z"/>
	<path d="M637.838,208.984l2.341-0.356c0.1,0.454,0.302,0.798,0.606,1.033s0.73,0.353,1.277,0.353c0.604,0,1.058-0.11,1.361-0.332
		c0.205-0.154,0.308-0.361,0.308-0.622c0-0.177-0.056-0.323-0.166-0.44c-0.116-0.11-0.376-0.213-0.78-0.307
		c-1.882-0.415-3.074-0.794-3.578-1.137c-0.697-0.477-1.045-1.138-1.045-1.984c0-0.764,0.301-1.406,0.904-1.926
		s1.538-0.78,2.806-0.78c1.206,0,2.103,0.196,2.689,0.589c0.587,0.394,0.99,0.975,1.212,1.744l-2.199,0.406
		c-0.095-0.344-0.273-0.605-0.536-0.789c-0.263-0.182-0.638-0.273-1.124-0.273c-0.615,0-1.055,0.086-1.32,0.258
		c-0.177,0.121-0.266,0.279-0.266,0.473c0,0.166,0.077,0.307,0.232,0.424c0.21,0.154,0.937,0.373,2.179,0.655
		s2.11,0.628,2.603,1.038c0.487,0.414,0.73,0.992,0.73,1.734c0,0.809-0.338,1.502-1.013,2.084c-0.675,0.58-1.674,0.871-2.997,0.871
		c-1.2,0-2.15-0.244-2.851-0.73S638.054,209.82,637.838,208.984z"/>
	<path d="M649.027,208.362l-0.605-6.176v-2.855h2.523v2.855l-0.598,6.176H649.027z M648.521,211.5v-2.332h2.332v2.332H648.521z"/>
</g>
<polygon points="40.393,112.064 108.199,58.411 78.388,112.064 "/>
<polygon fill="#808080" points="78.388,112.064 59.391,144.969 40.393,112.064 "/>
<polygon fill="#808080" points="85.015,76.757 58.842,6.678 108.199,58.411 "/>
<polygon points="66.779,27.929 11.953,27.929 58.842,6.678 "/>
<polygon fill="#808080" points="39.366,27.929 7.84,49.728 11.953,27.929 "/>
<polygon points="7.84,49.728 39.366,27.929 18.667,72.25 "/>
<g>
	<path d="M22.297,209.956c0.603,0.432,1.259,0.774,1.967,1.029l-0.905,1.735c-0.371-0.111-0.733-0.264-1.087-0.457
		c-0.078-0.039-0.623-0.398-1.635-1.079c-0.797,0.349-1.68,0.522-2.648,0.522c-1.871,0-3.335-0.55-4.396-1.651
		c-1.06-1.102-1.589-2.647-1.589-4.64c0-1.987,0.531-3.532,1.594-4.637c1.063-1.104,2.504-1.656,4.325-1.656
		c1.804,0,3.234,0.552,4.292,1.656c1.057,1.104,1.585,2.649,1.585,4.637c0,1.051-0.146,1.975-0.44,2.771
		C23.139,208.797,22.784,209.386,22.297,209.956z M20.322,208.57c0.315-0.371,0.552-0.819,0.709-1.346
		c0.158-0.525,0.237-1.129,0.237-1.809c0-1.406-0.31-2.456-0.93-3.15c-0.62-0.695-1.431-1.042-2.432-1.042s-1.813,0.349-2.437,1.046
		c-0.622,0.697-0.934,1.746-0.934,3.146c0,1.422,0.312,2.485,0.934,3.191c0.623,0.705,1.41,1.059,2.362,1.059
		c0.354,0,0.689-0.059,1.004-0.175c-0.498-0.326-1.004-0.581-1.519-0.764l0.689-1.403C18.814,207.602,19.586,208.017,20.322,208.57z
		"/>
	<path d="M31.511,211.5v-1.32c-0.321,0.471-0.743,0.842-1.266,1.113c-0.523,0.271-1.075,0.406-1.656,0.406
		c-0.592,0-1.124-0.13-1.594-0.391c-0.47-0.26-0.811-0.625-1.021-1.096c-0.21-0.47-0.315-1.12-0.315-1.95v-5.578h2.333v4.051
		c0,1.239,0.043,1.999,0.129,2.278c0.085,0.279,0.242,0.501,0.469,0.664s0.515,0.245,0.863,0.245c0.398,0,0.755-0.109,1.071-0.328
		s0.531-0.489,0.647-0.813c0.116-0.323,0.174-1.116,0.174-2.378v-3.719h2.333v8.815h-2.167V211.5z"/>
	<path d="M41.198,208.694l2.324,0.39c-0.299,0.853-0.771,1.502-1.415,1.947c-0.645,0.445-1.452,0.668-2.42,0.668
		c-1.533,0-2.667-0.501-3.403-1.502c-0.581-0.803-0.872-1.815-0.872-3.039c0-1.461,0.382-2.604,1.146-3.432s1.729-1.241,2.897-1.241
		c1.312,0,2.346,0.433,3.104,1.299s1.121,2.193,1.087,3.98h-5.844c0.017,0.691,0.205,1.229,0.564,1.614s0.808,0.577,1.345,0.577
		c0.365,0,0.672-0.1,0.921-0.299S41.071,209.137,41.198,208.694z M41.331,206.337c-0.017-0.675-0.191-1.188-0.523-1.54
		s-0.736-0.527-1.212-0.527c-0.509,0-0.93,0.186-1.262,0.557s-0.495,0.874-0.49,1.511h3.487V206.337z"/>
	<path d="M44.726,208.984l2.341-0.356c0.1,0.454,0.302,0.798,0.606,1.033s0.73,0.353,1.278,0.353c0.603,0,1.057-0.11,1.361-0.332
		c0.205-0.154,0.307-0.362,0.307-0.622c0-0.177-0.055-0.323-0.166-0.44c-0.116-0.11-0.376-0.213-0.78-0.307
		c-1.881-0.415-3.074-0.794-3.578-1.137c-0.697-0.477-1.046-1.138-1.046-1.984c0-0.764,0.302-1.405,0.905-1.926
		s1.539-0.78,2.806-0.78c1.207,0,2.103,0.196,2.689,0.589c0.586,0.394,0.991,0.975,1.212,1.744l-2.2,0.406
		c-0.094-0.343-0.272-0.605-0.536-0.789c-0.263-0.182-0.638-0.273-1.125-0.273c-0.614,0-1.054,0.086-1.32,0.258
		c-0.177,0.121-0.266,0.279-0.266,0.473c0,0.166,0.078,0.307,0.232,0.424c0.21,0.154,0.937,0.373,2.179,0.655
		c1.243,0.282,2.11,0.628,2.603,1.038c0.487,0.414,0.73,0.993,0.73,1.734c0,0.808-0.337,1.502-1.013,2.084
		c-0.675,0.58-1.674,0.871-2.997,0.871c-1.201,0-2.151-0.243-2.851-0.73C45.4,210.481,44.942,209.82,44.726,208.984z"/>
	<path d="M59.045,202.685v1.859h-1.594v3.553c0,0.72,0.015,1.139,0.046,1.258c0.03,0.119,0.1,0.217,0.207,0.294
		c0.108,0.078,0.24,0.117,0.395,0.117c0.216,0,0.528-0.075,0.938-0.225l0.199,1.81c-0.542,0.232-1.157,0.349-1.843,0.349
		c-0.42,0-0.8-0.07-1.137-0.212c-0.337-0.141-0.585-0.323-0.743-0.548c-0.157-0.224-0.267-0.527-0.328-0.908
		c-0.05-0.271-0.075-0.819-0.075-1.645v-3.843h-1.07v-1.859h1.071v-1.751l2.341-1.361v3.113L59.045,202.685L59.045,202.685z"/>
	<path d="M60.664,201.489v-2.158h2.333v2.158H60.664z M60.664,211.5v-8.815h2.333v8.815H60.664z"/>
	<path d="M64.847,206.968c0-0.774,0.191-1.524,0.573-2.249c0.382-0.726,0.923-1.279,1.623-1.66c0.7-0.383,1.482-0.573,2.345-0.573
		c1.333,0,2.427,0.433,3.279,1.299s1.278,1.961,1.278,3.283c0,1.334-0.43,2.439-1.291,3.316c-0.86,0.877-1.943,1.315-3.25,1.315
		c-0.808,0-1.579-0.183-2.312-0.548c-0.733-0.365-1.291-0.9-1.672-1.606C65.038,208.84,64.847,207.98,64.847,206.968z
		 M67.238,207.092c0,0.875,0.208,1.545,0.623,2.01s0.927,0.697,1.536,0.697s1.119-0.232,1.531-0.697
		c0.413-0.465,0.619-1.141,0.619-2.025c0-0.863-0.206-1.527-0.619-1.992c-0.412-0.465-0.922-0.697-1.531-0.697
		s-1.121,0.232-1.536,0.697S67.238,206.218,67.238,207.092z"/>
	<path d="M83.79,211.5h-2.333v-4.499c0-0.952-0.05-1.567-0.149-1.847s-0.262-0.497-0.485-0.652c-0.225-0.154-0.494-0.232-0.81-0.232
		c-0.404,0-0.767,0.111-1.087,0.332c-0.321,0.222-0.541,0.516-0.66,0.881c-0.119,0.365-0.179,1.04-0.179,2.025v3.992h-2.333v-8.815
		h2.167v1.295c0.769-0.996,1.738-1.494,2.905-1.494c0.515,0,0.985,0.093,1.411,0.278s0.749,0.422,0.967,0.709
		c0.219,0.288,0.371,0.615,0.457,0.98c0.085,0.365,0.128,0.888,0.128,1.568L83.79,211.5L83.79,211.5z"/>
	<path d="M85.333,208.984l2.341-0.356c0.1,0.454,0.302,0.798,0.606,1.033s0.73,0.353,1.278,0.353c0.603,0,1.057-0.11,1.361-0.332
		c0.205-0.154,0.307-0.362,0.307-0.622c0-0.177-0.055-0.323-0.166-0.44c-0.116-0.11-0.376-0.213-0.78-0.307
		c-1.881-0.415-3.074-0.794-3.578-1.137c-0.697-0.477-1.046-1.138-1.046-1.984c0-0.764,0.302-1.405,0.905-1.926
		s1.539-0.78,2.806-0.78c1.207,0,2.103,0.196,2.689,0.589c0.586,0.394,0.991,0.975,1.212,1.744l-2.2,0.406
		c-0.094-0.343-0.272-0.605-0.536-0.789c-0.263-0.182-0.638-0.273-1.125-0.273c-0.614,0-1.054,0.086-1.32,0.258
		c-0.177,0.121-0.266,0.279-0.266,0.473c0,0.166,0.078,0.307,0.232,0.424c0.21,0.154,0.937,0.373,2.179,0.655
		c1.243,0.282,2.11,0.628,2.603,1.038c0.487,0.414,0.73,0.993,0.73,1.734c0,0.808-0.337,1.502-1.013,2.084
		c-0.675,0.58-1.674,0.871-2.997,0.871c-1.201,0-2.151-0.243-2.851-0.73C86.007,210.481,85.549,209.82,85.333,208.984z"/>
	<path d="M96.523,208.362l-0.606-6.176v-2.855h2.523v2.855l-0.598,6.176H96.523z M96.017,211.5v-2.332h2.333v2.332H96.017z"/>
</g>
<polygon points="39.845,189.555 58.842,156.65 77.84,189.555 "/>
<polygon points="108.199,58.411 58.842,6.678 87.875,27.929 "/>
</svg>
